<svg xmlns="http://www.w3.org/2000/svg" height="44" viewBox="0 0 132 100"><defs><style>.cls-1{fill:#fff;}</style></defs><title>ucla</title><g id="Logo_png_exports" data-name="Logo png exports"><g id="ucla_copy_2" data-name="ucla copy 2"><path class="cls-1" d="M.12,57.57A36.82,36.82,0,0,1,0,53.17l2.1-23.8h7.8l-2.14,24c-.46,5.2,1.58,8.9,6.77,8.9s8.11-3.77,8.57-8.38l2.21-24.54h7.79L31,53.59c-.87,9.33-7.06,16.32-17.07,16.32-7.8,0-12.83-5-13.78-12.34"/><path class="cls-1" d="M36.28,49.51c1-11.43,8.73-20.9,22-20.9a18.29,18.29,0,0,1,10.24,3L67.67,41c-3.07-4-6.72-4.7-10.09-4.7-8.28,0-12.83,5.75-13.48,13-.63,7.09,3,12.86,11.06,12.86,3.51,0,7.22-1,11.11-4.9L65.41,67a22.36,22.36,0,0,1-10.86,3c-13.17,0-19.21-9.79-18.26-20.49"/><path class="cls-1" d="M74.78,29.36h7.77L79.72,61.69H90.85c.78,0,3.44,0,4.16-.08,0,.39-.7,7.47-.7,7.47h-23Z"/><path class="cls-1" d="M115.27,44.19a9.91,9.91,0,0,0,.58-1.67H116a9,9,0,0,0,.3,1.68c.42,1.81,3.45,11.86,3.45,11.86h-9.81s5.26-11.61,5.36-11.87m2-16.64h-.54L95.45,69.08h8.26l3-6.3h15l1.87,6.3h8.24Z"/></g></g></svg>
